# xmcd
#
# Track frame offsets:
#	150
#	14998
#	30499
#	50165
#	67974
#	86589
#	106066
#	125030
#	144917
#	159959
#	178573
#	193846
#
# Disc length: 2846 seconds
# Revision: 0
# Processed by: cddbd v1.5.2PL0 Copyright (c) Steve Scherf et al.
# Submitted via: dBpowerAMP V12.0
#
DISCID=a20b1c0c
DTITLE=Jim and Lynna Woolsey - The Road That Brings You Home
DYEAR=2014
DGENRE=Country
TTITLE0=Wheel In His Hand
TTITLE1=I'm The Best You'll Ever Do
TTITLE2=Letter From The City
TTITLE3=Runaway Train
TTITLE4=She's Gonna Fly
TTITLE5=Rude Jenne
TTITLE6=River Road
TTITLE7=Back To Tennessee
TTITLE8=The Road That Brings You Home
TTITLE9=The Ride
TTITLE10=Gypsies In A Wagon
TTITLE11=Will You Be Ready
EXTD=
EXTT0=
EXTT1=
EXTT2=
EXTT3=
EXTT4=
EXTT5=
EXTT6=
EXTT7=
EXTT8=
EXTT9=
EXTT10=
EXTT11=
PLAYORDER=
